<svg width="132" height="30" viewBox="0 0 132 30" fill="none" xmlns="http://www.w3.org/2000/svg">
<g clip-path="url(#clip0_18_3)">
<path d="M3.50614 11.7502C3.53267 11.7502 3.55921 11.7502 3.58655 11.7502C3.63231 11.7501 3.63231 11.7501 3.67898 11.75C3.72986 11.7501 3.72986 11.7501 3.78176 11.7503C3.81747 11.7503 3.85319 11.7502 3.88998 11.7502C3.98956 11.7502 4.08913 11.7503 4.18871 11.7504C4.29592 11.7506 4.40313 11.7505 4.51034 11.7505C4.69624 11.7505 4.88214 11.7506 5.06804 11.7508C5.33682 11.751 5.6056 11.7511 5.87439 11.7512C6.31042 11.7512 6.74646 11.7515 7.18249 11.7518C7.60617 11.7521 8.02985 11.7523 8.45352 11.7524C8.47962 11.7525 8.50572 11.7525 8.5326 11.7525C8.66352 11.7525 8.79443 11.7526 8.92534 11.7526C10.0121 11.7529 11.0989 11.7535 12.1857 11.7543C12.1857 11.9119 12.1333 12.0025 12.0639 12.1353C11.7206 12.8167 11.4692 13.5626 11.3331 14.3249C11.3276 14.3543 11.322 14.3837 11.3163 14.414C11.1344 15.4075 11.1463 16.4647 11.3331 17.4559C11.3378 17.4823 11.3425 17.5087 11.3474 17.536C11.5689 18.7599 12.1029 19.9181 12.8252 20.8835C12.8379 20.9006 12.8506 20.9178 12.8637 20.9354C13.1847 21.3668 13.5438 21.7676 13.9519 22.1029C13.977 22.1238 13.977 22.1238 14.0027 22.1451C14.4365 22.5033 14.8888 22.8083 15.3831 23.0587C15.4048 23.0698 15.4266 23.081 15.449 23.0924C16.4133 23.5829 17.4478 23.8239 18.5119 23.825C18.5354 23.825 18.5588 23.825 18.583 23.8251C18.9841 23.8247 19.3728 23.7956 19.768 23.7178C19.7924 23.7133 19.8168 23.7087 19.842 23.7039C20.8172 23.5171 21.7836 23.1097 22.5999 22.4984C22.6493 22.4621 22.6493 22.4621 22.6996 22.425C22.9658 22.2262 23.2112 22.0061 23.4526 21.7733C23.4693 21.7573 23.4861 21.7413 23.5033 21.7247C23.6923 21.5432 23.8692 21.3576 24.0311 21.1472C24.055 21.1184 24.0789 21.0896 24.1035 21.06C24.4 20.6994 24.6558 20.2949 24.8717 19.8726C24.8854 19.8459 24.8991 19.8192 24.9132 19.7917C24.9236 19.7713 24.9339 19.751 24.9447 19.73C24.9213 19.73 24.898 19.73 24.8739 19.7301C24.3064 19.7308 23.739 19.7313 23.1715 19.7317C22.8971 19.7319 22.6227 19.7321 22.3483 19.7325C22.1092 19.7328 21.8701 19.733 21.631 19.7331C21.5043 19.7331 21.3776 19.7332 21.251 19.7335C21.1319 19.7337 21.0128 19.7338 20.8937 19.7337C20.8498 19.7337 20.806 19.7338 20.7622 19.7339C20.7026 19.7341 20.643 19.734 20.5834 19.7339C20.55 19.734 20.5165 19.734 20.4821 19.734C20.4075 19.73 20.4075 19.73 20.377 19.697C20.374 19.6471 20.3732 19.597 20.3732 19.5469C20.3731 19.5144 20.373 19.482 20.3729 19.4486C20.373 19.4127 20.373 19.3768 20.3731 19.3398C20.373 19.3023 20.373 19.2647 20.3729 19.226C20.3728 19.1012 20.3729 18.9763 20.373 18.8515C20.373 18.7651 20.3729 18.6788 20.3729 18.5925C20.3728 18.4113 20.3729 18.2301 20.3731 18.0489C20.3732 17.8391 20.3732 17.6293 20.373 17.4196C20.3728 17.2181 20.3729 17.0167 20.373 16.8153C20.373 16.7294 20.3729 16.6435 20.3729 16.5576C20.3728 16.4378 20.3729 16.318 20.3731 16.1982C20.373 16.1623 20.373 16.1264 20.3729 16.0894C20.373 16.057 20.3731 16.0245 20.3732 15.9911C20.3732 15.9628 20.3732 15.9344 20.3732 15.9052C20.377 15.841 20.377 15.841 20.4075 15.808C20.4557 15.8048 20.5041 15.8039 20.5524 15.8039C20.5839 15.8038 20.6155 15.8037 20.648 15.8036C20.6831 15.8037 20.7181 15.8038 20.7543 15.8038C20.7912 15.8038 20.8281 15.8037 20.8662 15.8037C20.9692 15.8036 21.0722 15.8036 21.1752 15.8037C21.2861 15.8038 21.3969 15.8037 21.5078 15.8036C21.7252 15.8034 21.9426 15.8035 22.1601 15.8036C22.3367 15.8036 22.5133 15.8037 22.6899 15.8036C22.715 15.8036 22.7401 15.8036 22.7659 15.8036C22.8169 15.8036 22.8678 15.8036 22.9188 15.8036C23.3972 15.8035 23.8756 15.8036 24.354 15.8038C24.7649 15.8039 25.1758 15.8039 25.5868 15.8037C26.0634 15.8036 26.54 15.8035 27.0167 15.8036C27.0674 15.8036 27.1182 15.8036 27.169 15.8036C27.2065 15.8036 27.2065 15.8036 27.2447 15.8036C27.4212 15.8037 27.5977 15.8036 27.7742 15.8035C27.9892 15.8034 28.2041 15.8035 28.4191 15.8036C28.5288 15.8037 28.6386 15.8038 28.7484 15.8037C28.8671 15.8035 28.9859 15.8037 29.1046 15.8038C29.1397 15.8038 29.1748 15.8037 29.2109 15.8036C29.2424 15.8037 29.274 15.8038 29.3065 15.8039C29.3339 15.8039 29.3614 15.8039 29.3897 15.8039C29.4514 15.808 29.4514 15.808 29.4818 15.841C29.4908 15.989 29.4893 16.1376 29.4895 16.2859C29.4895 16.3194 29.4895 16.3194 29.4895 16.3535C29.4889 16.7924 29.4544 17.2202 29.3905 17.6537C29.3827 17.7072 29.3827 17.7072 29.3747 17.7619C29.1161 19.4815 28.5281 21.1712 27.5939 22.5973C27.5734 22.6287 27.5529 22.6602 27.5318 22.6926C27.4722 22.7825 27.4116 22.8713 27.3503 22.9598C27.3272 22.9933 27.3041 23.0267 27.2803 23.0611C26.7455 23.8288 26.1307 24.54 25.4319 25.135C25.3915 25.1702 25.3511 25.2054 25.3108 25.2406C23.7906 26.5556 21.9358 27.38 20.0135 27.6686C19.9908 27.672 19.9681 27.6755 19.9447 27.679C19.4817 27.7475 19.0213 27.7786 18.5538 27.7778C18.5321 27.7778 18.5104 27.7778 18.488 27.7777C18.0801 27.7767 17.6765 27.7561 17.271 27.7057C17.2393 27.7018 17.2076 27.6979 17.1749 27.6939C16.2027 27.5687 15.2492 27.2945 14.3477 26.8818C14.3283 26.8729 14.3089 26.8641 14.289 26.855C13.9773 26.7127 13.6731 26.5569 13.3733 26.3874C13.3525 26.3757 13.3318 26.3641 13.3104 26.3521C13.0108 26.1826 12.7262 25.9924 12.4446 25.79C12.4144 25.7684 12.3842 25.7468 12.3531 25.7245C12.1816 25.5995 12.0176 25.4682 11.8575 25.3265C11.7903 25.2673 11.7219 25.2102 11.6528 25.1536C11.5271 25.0482 11.4093 24.9351 11.2921 24.8188C11.2282 24.7562 11.1636 24.6951 11.0983 24.6343C10.9514 24.4956 10.814 24.3473 10.6765 24.1978C10.6518 24.1712 10.6271 24.1446 10.6016 24.1171C10.4534 23.9565 10.3114 23.7923 10.176 23.619C10.1602 23.5989 10.1445 23.5788 10.1283 23.558C9.74095 23.0584 9.40355 22.5281 9.08788 21.973C9.05579 21.9166 9.02332 21.8605 8.99076 21.8044C8.66037 21.2178 8.41862 20.5693 8.19666 19.9277C8.18036 19.8808 8.18036 19.8808 8.16373 19.833C7.75741 18.6447 7.54656 17.3414 7.55529 16.0758C7.55542 16.037 7.55556 15.9982 7.5557 15.9583C7.55606 15.8642 7.55655 15.7702 7.55719 15.6762C7.51908 15.6772 7.51908 15.6772 7.4802 15.6783C6.30734 15.7059 5.34424 15.4504 4.46238 14.5676C3.8385 13.8935 3.4198 12.9354 3.41016 11.9767C3.41137 11.7566 3.41137 11.7566 3.50614 11.7502Z" fill="#4FBF8B"/>
<path d="M0.159878 4.00433C0.18685 4.00424 0.213821 4.00415 0.24161 4.00406C0.286658 4.00416 0.286658 4.00416 0.332616 4.00426C0.364341 4.0042 0.396066 4.00415 0.428752 4.00409C0.536498 4.00393 0.644242 4.00401 0.751987 4.00409C0.829449 4.00403 0.906911 4.00396 0.984373 4.00387C1.15355 4.00371 1.32272 4.00365 1.4919 4.00369C1.7435 4.00374 1.99511 4.0036 2.24671 4.00343C2.72236 4.00311 3.19802 4.00301 3.67367 4.003C4.04131 4.00298 4.40895 4.00291 4.77658 4.00281C4.88233 4.00278 4.98809 4.00275 5.09384 4.00272C5.12013 4.00271 5.14642 4.0027 5.17351 4.0027C5.91364 4.00249 6.65378 4.00236 7.39392 4.00238C7.42185 4.00238 7.44978 4.00238 7.47856 4.00238C7.62015 4.00238 7.76173 4.00239 7.90331 4.00239C7.93143 4.00239 7.95955 4.00239 7.98852 4.00239C8.04538 4.00239 8.10225 4.00239 8.15911 4.0024C9.04224 4.00242 9.92536 4.00217 10.8085 4.00172C11.8007 4.00121 12.7929 4.00093 13.7851 4.00096C13.8911 4.00096 13.9971 4.00096 14.1031 4.00096C14.1292 4.00096 14.1553 4.00096 14.1822 4.00097C14.601 4.00097 15.0198 4.00076 15.4386 4.00047C15.8604 4.00019 16.2822 4.00016 16.704 4.00038C16.9541 4.0005 17.2042 4.00044 17.4542 4.00011C17.6418 3.99989 17.8294 4.00002 18.017 4.00028C18.0922 4.00033 18.1675 4.00027 18.2428 4.00008C18.9108 3.99855 19.5754 4.03476 20.2361 4.14651C20.2568 4.14996 20.2775 4.15342 20.2988 4.15697C21.3911 4.3411 22.4576 4.71658 23.4392 5.2681C23.5317 5.31997 23.625 5.36884 23.719 5.41744C24.5085 5.84646 25.2091 6.43046 25.8695 7.05967C25.9133 7.10109 25.9576 7.14189 26.0019 7.1826C26.0242 7.20303 26.0464 7.22347 26.0694 7.24452C26.0971 7.26969 26.0971 7.26969 26.1254 7.29537C26.1626 7.33721 26.1626 7.33721 26.1626 7.40313C26.19 7.41638 26.19 7.41638 26.2178 7.42991C26.2844 7.46902 26.3275 7.50516 26.3758 7.56792C26.3758 7.58967 26.3758 7.61142 26.3758 7.63383C26.394 7.64254 26.4123 7.65125 26.4311 7.66022C26.501 7.70176 26.5363 7.73887 26.587 7.8048C26.6583 7.8962 26.7298 7.98718 26.8029 8.07683C27.4357 8.85435 27.9715 9.73058 28.3863 10.6649C28.4168 10.7337 28.4478 10.8023 28.4788 10.8709C28.5835 11.1046 28.6814 11.3403 28.7681 11.5826C28.7801 11.6154 28.7801 11.6154 28.7924 11.6489C28.8327 11.7654 28.8458 11.8332 28.8119 11.9513C28.3111 11.9675 27.8103 11.9797 27.3094 11.9871C27.0767 11.9907 26.8442 11.9955 26.6116 12.0035C26.4087 12.0104 26.2059 12.0149 26.0029 12.0164C25.8955 12.0173 25.7884 12.0194 25.6811 12.0244C25.0314 12.054 25.0314 12.054 24.8376 11.8841C24.7045 11.7206 24.6136 11.5393 24.5277 11.3434C24.4688 11.219 24.3927 11.1133 24.3108 11.0058C24.2974 10.9877 24.2839 10.9696 24.2701 10.9509C24.1003 10.7239 23.92 10.507 23.7266 10.3034C23.5743 10.1386 23.5743 10.1386 23.5291 10.0874C22.3916 8.81521 20.5656 8.00894 18.9407 7.96148C18.7496 7.95826 18.5585 7.95874 18.3674 7.95886C18.3024 7.95878 18.2374 7.95868 18.1724 7.95858C17.9943 7.95832 17.8163 7.95827 17.6383 7.95824C17.4461 7.95818 17.2538 7.95793 17.0616 7.9577C16.7502 7.95735 16.4388 7.95708 16.1275 7.95688C15.6016 7.95655 15.0758 7.95592 14.55 7.95518C14.3474 7.9549 14.1448 7.95463 13.9422 7.95436C13.9197 7.95432 13.8972 7.95429 13.8741 7.95426C13.3388 7.95354 12.8036 7.95289 12.2683 7.95227C12.2449 7.95224 12.2215 7.95222 12.1974 7.95219C11.6514 7.95156 11.1054 7.951 10.5594 7.9506C10.5242 7.95057 10.5242 7.95057 10.4882 7.95054C10.299 7.9504 10.1097 7.95026 9.92045 7.95013C9.13932 7.94956 8.35818 7.94866 7.57705 7.94739C7.46663 7.94721 7.35622 7.94703 7.2458 7.94686C7.22407 7.94682 7.20234 7.94679 7.17995 7.94675C6.83102 7.94622 6.48208 7.94603 6.13315 7.94599C5.78217 7.94594 5.43121 7.94553 5.08024 7.94478C4.89028 7.94438 4.70033 7.94415 4.51038 7.94434C4.33623 7.94452 4.16209 7.94423 3.98795 7.9436C3.9252 7.94345 3.86246 7.94346 3.79972 7.94366C2.74909 7.94672 1.83296 7.60548 1.07109 6.80989C1.03817 6.77739 1.03817 6.77739 1.00459 6.74424C0.677571 6.41237 0.462178 5.99482 0.279363 5.55751C0.264643 5.52348 0.249923 5.48945 0.234757 5.45438C0.145724 5.22974 0.098238 5.00163 0.0566906 4.76241C0.0514601 4.73253 0.0462297 4.70266 0.0408407 4.67188C0.00727129 4.46227 -0.00924033 4.25421 0.0053047 4.04146C0.0521033 3.99081 0.0946333 4.00436 0.159878 4.00433Z" fill="#4FBF8B"/>
<path d="M33.2678 24V12.5455H36.3477V14.544H36.467C36.6758 13.8331 37.0263 13.2962 37.5185 12.9332C38.0107 12.5653 38.5774 12.3814 39.2188 12.3814C39.3778 12.3814 39.5494 12.3913 39.7333 12.4112C39.9173 12.4311 40.0788 12.4585 40.218 12.4933V15.3121C40.0689 15.2674 39.8626 15.2276 39.5991 15.1928C39.3356 15.158 39.0945 15.1406 38.8757 15.1406C38.4084 15.1406 37.9908 15.2425 37.6229 15.4464C37.2599 15.6452 36.9716 15.9237 36.7578 16.2816C36.549 16.6396 36.4446 17.0522 36.4446 17.5195V24H33.2678ZM46.5028 24.2237C45.3444 24.2237 44.3426 23.9776 43.4974 23.4854C42.6572 22.9883 42.0084 22.2972 41.551 21.4123C41.0937 20.5224 40.865 19.4908 40.865 18.3175C40.865 17.1342 41.0937 16.1001 41.551 15.2152C42.0084 14.3253 42.6572 13.6342 43.4974 13.142C44.3426 12.6449 45.3444 12.3963 46.5028 12.3963C47.6611 12.3963 48.6604 12.6449 49.5006 13.142C50.3458 13.6342 50.9971 14.3253 51.4545 15.2152C51.9118 16.1001 52.1405 17.1342 52.1405 18.3175C52.1405 19.4908 51.9118 20.5224 51.4545 21.4123C50.9971 22.2972 50.3458 22.9883 49.5006 23.4854C48.6604 23.9776 47.6611 24.2237 46.5028 24.2237ZM46.5177 21.7628C47.0447 21.7628 47.4846 21.6136 47.8376 21.3153C48.1906 21.0121 48.4566 20.5994 48.6356 20.0774C48.8195 19.5554 48.9115 18.9613 48.9115 18.2951C48.9115 17.6289 48.8195 17.0348 48.6356 16.5128C48.4566 15.9908 48.1906 15.5781 47.8376 15.2749C47.4846 14.9716 47.0447 14.82 46.5177 14.82C45.9857 14.82 45.5383 14.9716 45.1753 15.2749C44.8174 15.5781 44.5464 15.9908 44.3625 16.5128C44.1835 17.0348 44.094 17.6289 44.094 18.2951C44.094 18.9613 44.1835 19.5554 44.3625 20.0774C44.5464 20.5994 44.8174 21.0121 45.1753 21.3153C45.5383 21.6136 45.9857 21.7628 46.5177 21.7628ZM59.3817 24.2237C58.2084 24.2237 57.1991 23.9751 56.354 23.478C55.5138 22.9759 54.8675 22.2798 54.415 21.3899C53.9676 20.5 53.7439 19.4759 53.7439 18.3175C53.7439 17.1442 53.9701 16.1151 54.4225 15.2301C54.8799 14.3402 55.5287 13.6467 56.3689 13.1495C57.2091 12.6474 58.2084 12.3963 59.3667 12.3963C60.366 12.3963 61.241 12.5778 61.9917 12.9407C62.7425 13.3036 63.3366 13.8132 63.7741 14.4695C64.2116 15.1257 64.4527 15.8963 64.4974 16.7812H61.4996C61.415 16.2095 61.1913 15.7496 60.8284 15.4016C60.4704 15.0487 60.0006 14.8722 59.4189 14.8722C58.9268 14.8722 58.4967 15.0064 58.1288 15.2749C57.7659 15.5384 57.4825 15.9237 57.2787 16.4308C57.0748 16.9379 56.9729 17.5518 56.9729 18.2727C56.9729 19.0036 57.0724 19.625 57.2712 20.1371C57.4751 20.6491 57.7609 21.0394 58.1288 21.3079C58.4967 21.5763 58.9268 21.7106 59.4189 21.7106C59.7819 21.7106 60.1075 21.636 60.3959 21.4869C60.6892 21.3377 60.9303 21.1214 61.1192 20.8381C61.3131 20.5497 61.4399 20.2042 61.4996 19.8015H64.4974C64.4477 20.6765 64.2091 21.4471 63.7815 22.1133C63.3589 22.7745 62.7748 23.2915 62.029 23.6644C61.2833 24.0373 60.4008 24.2237 59.3817 24.2237ZM71.7516 24.2237C70.5733 24.2237 69.5591 23.9851 68.709 23.5078C67.8638 23.0256 67.2125 22.3445 66.7551 21.4645C66.2978 20.5795 66.0691 19.533 66.0691 18.3249C66.0691 17.1467 66.2978 16.1126 66.7551 15.2227C67.2125 14.3327 67.8564 13.6392 68.6866 13.142C69.5218 12.6449 70.5012 12.3963 71.6248 12.3963C72.3805 12.3963 73.084 12.5181 73.7353 12.7617C74.3915 13.0004 74.9632 13.3608 75.4505 13.843C75.9426 14.3253 76.3255 14.9318 76.5989 15.6626C76.8723 16.3885 77.0091 17.2386 77.0091 18.2131V19.0856H67.3368V17.1168H74.0186C74.0186 16.6594 73.9192 16.2543 73.7203 15.9013C73.5215 15.5483 73.2456 15.2724 72.8926 15.0735C72.5446 14.8697 72.1394 14.7678 71.677 14.7678C71.1948 14.7678 70.7672 14.8796 70.3944 15.1033C70.0265 15.3221 69.7381 15.6179 69.5293 15.9908C69.3205 16.3587 69.2136 16.7688 69.2086 17.2212V19.093C69.2086 19.6598 69.313 20.1495 69.5218 20.5621C69.7356 20.9748 70.0364 21.293 70.4242 21.5167C70.812 21.7404 71.2718 21.8523 71.8038 21.8523C72.1568 21.8523 72.4799 21.8026 72.7733 21.7031C73.0666 21.6037 73.3176 21.4545 73.5265 21.2557C73.7353 21.0568 73.8944 20.8132 74.0037 20.5249L76.9419 20.7188C76.7928 21.4247 76.487 22.0412 76.0247 22.5682C75.5673 23.0902 74.9757 23.4979 74.2498 23.7912C73.5289 24.0795 72.6962 24.2237 71.7516 24.2237ZM79.0822 24V12.5455H82.1621V14.544H82.2814C82.4902 13.8331 82.8407 13.2962 83.3329 12.9332C83.8251 12.5653 84.3919 12.3814 85.0332 12.3814C85.1923 12.3814 85.3638 12.3913 85.5478 12.4112C85.7317 12.4311 85.8933 12.4585 86.0325 12.4933V15.3121C85.8833 15.2674 85.677 15.2276 85.4135 15.1928C85.15 15.158 84.9089 15.1406 84.6902 15.1406C84.2228 15.1406 83.8052 15.2425 83.4373 15.4464C83.0744 15.6452 82.786 15.9237 82.5723 16.2816C82.3635 16.6396 82.2591 17.0522 82.2591 17.5195V24H79.0822ZM89.9849 28.2955C89.5822 28.2955 89.2044 28.2631 88.8514 28.1985C88.5034 28.1388 88.215 28.0618 87.9863 27.9673L88.7022 25.5959C89.0751 25.7102 89.4107 25.7724 89.709 25.7823C90.0123 25.7923 90.2733 25.7227 90.492 25.5735C90.7157 25.4244 90.8972 25.1708 91.0364 24.8129L91.2228 24.3281L87.1138 12.5455H90.4547L92.8262 20.9574H92.9455L95.3393 12.5455H98.7026L94.2505 25.2379C94.0368 25.8544 93.7459 26.3913 93.378 26.8487C93.0151 27.3111 92.5552 27.6665 91.9984 27.9151C91.4416 28.1687 90.7704 28.2955 89.9849 28.2955ZM110.515 13.6641C110.411 13.3011 110.264 12.9805 110.075 12.7021C109.886 12.4187 109.655 12.18 109.382 11.9862C109.113 11.7873 108.805 11.6357 108.457 11.5312C108.114 11.4268 107.733 11.3746 107.316 11.3746C106.535 11.3746 105.849 11.5685 105.258 11.9563C104.671 12.3441 104.214 12.9084 103.885 13.6491C103.557 14.3849 103.393 15.2848 103.393 16.3487C103.393 17.4126 103.555 18.3175 103.878 19.0632C104.201 19.8089 104.659 20.3782 105.25 20.771C105.842 21.1587 106.54 21.3526 107.346 21.3526C108.077 21.3526 108.7 21.2234 109.218 20.9648C109.74 20.7013 110.137 20.331 110.411 19.8537C110.689 19.3764 110.828 18.8121 110.828 18.1609L111.485 18.2578H107.547V15.8267H113.938V17.7507C113.938 19.093 113.655 20.2464 113.088 21.2109C112.521 22.1705 111.741 22.9112 110.746 23.4332C109.752 23.9503 108.613 24.2088 107.331 24.2088C105.899 24.2088 104.641 23.8931 103.557 23.2617C102.474 22.6254 101.628 21.723 101.022 20.5547C100.42 19.3814 100.119 17.9893 100.119 16.3786C100.119 15.1406 100.298 14.0369 100.656 13.0675C101.019 12.093 101.526 11.2678 102.178 10.5916C102.829 9.91548 103.587 9.40092 104.452 9.04794C105.317 8.69496 106.254 8.51847 107.264 8.51847C108.129 8.51847 108.934 8.64524 109.68 8.89879C110.426 9.14737 111.087 9.50035 111.664 9.95774C112.245 10.4151 112.72 10.9595 113.088 11.5909C113.456 12.2173 113.692 12.9084 113.796 13.6641H110.515ZM121.479 24.2237C120.321 24.2237 119.319 23.9776 118.474 23.4854C117.634 22.9883 116.985 22.2972 116.528 21.4123C116.07 20.5224 115.842 19.4908 115.842 18.3175C115.842 17.1342 116.07 16.1001 116.528 15.2152C116.985 14.3253 117.634 13.6342 118.474 13.142C119.319 12.6449 120.321 12.3963 121.479 12.3963C122.638 12.3963 123.637 12.6449 124.477 13.142C125.322 13.6342 125.974 14.3253 126.431 15.2152C126.888 16.1001 127.117 17.1342 127.117 18.3175C127.117 19.4908 126.888 20.5224 126.431 21.4123C125.974 22.2972 125.322 22.9883 124.477 23.4854C123.637 23.9776 122.638 24.2237 121.479 24.2237ZM121.494 21.7628C122.021 21.7628 122.461 21.6136 122.814 21.3153C123.167 21.0121 123.433 20.5994 123.612 20.0774C123.796 19.5554 123.888 18.9613 123.888 18.2951C123.888 17.6289 123.796 17.0348 123.612 16.5128C123.433 15.9908 123.167 15.5781 122.814 15.2749C122.461 14.9716 122.021 14.82 121.494 14.82C120.962 14.82 120.515 14.9716 120.152 15.2749C119.794 15.5781 119.523 15.9908 119.339 16.5128C119.16 17.0348 119.071 17.6289 119.071 18.2951C119.071 18.9613 119.16 19.5554 119.339 20.0774C119.523 20.5994 119.794 21.0121 120.152 21.3153C120.515 21.6136 120.962 21.7628 121.494 21.7628Z" fill="black"/>
</g>
<defs>
<clipPath id="clip0_18_3">
<rect width="132" height="30" fill="white"/>
</clipPath>
</defs>
</svg>
